<svg height="20" viewBox="0 0 20.699219 20" width="20.699219" xmlns="http://www.w3.org/2000/svg"><path d="m10 0c-5.5 0-10 4.5-10 10s4.5 10 10 10 10-4.5 10-10c0-1.1-.2-2.1992188-.5-3.1992188l-1.699219 1.5996098c.1.5.199219.999609.199219 1.599609 0 4.4-3.6 8-8 8s-8-3.6-8-8 3.6-8 8-8c1.6 0 3.100391.5007812 4.400391 1.3007812l1.40039-1.4003906c-1.6-1.2-3.600781-1.9003906-5.800781-1.9003906zm9.300781 1.3007812-10.300781 10.2988278-3.3007812-3.298828-1.3984376 1.398438 4.6992188 4.701172 11.699219-11.7011722z"/></svg>