<svg viewBox="0 0 448 512" xmlns="http://www.w3.org/2000/svg"><path d="m433.941 65.941-51.882-51.882a48 48 0 0 0 -33.941-14.059h-172.118c-26.51 0-48 21.49-48 48v48h-80c-26.51 0-48 21.49-48 48v320c0 26.51 21.49 48 48 48h224c26.51 0 48-21.49 48-48v-48h80c26.51 0 48-21.49 48-48v-268.118a48 48 0 0 0 -14.059-33.941zm-81.941-33.45a15.88 15.88 0 0 1 7.431 4.195l51.882 51.883a15.885 15.885 0 0 1 4.195 7.431h-63.508zm-64 431.509c0 8.822-7.178 16-16 16h-224c-8.822 0-16-7.178-16-16v-320c0-8.822 7.178-16 16-16h80v240c0 26.51 21.49 48 48 48h112zm128-96c0 8.822-7.178 16-16 16h-224c-8.822 0-16-7.178-16-16v-320c0-8.822 7.178-16 16-16h144v72c0 13.2 10.8 24 24 24h72z"/></svg>