<svg height="495.99924" viewBox="0 0 477.44843 495.99924" width="477.44843" xmlns="http://www.w3.org/2000/svg"><path d="m465.42021 291.27613-32.61-18.827a195.168 195.168 0 0 0 0-48.899l32.61-18.827c9.576-5.528 14.195-16.902 11.046-27.501-11.214-37.749-31.175-71.728-57.535-99.595005-7.634-8.07-19.817-9.836-29.437-4.282l-32.562 18.798a194.125 194.125 0 0 0 -42.339-24.48v-37.614c0-11.13-7.652-20.804-18.484-23.367-37.644-8.909-77.118-8.91-114.77 0-10.831 2.563-18.484 12.236-18.484 23.367v37.614a194.101 194.101 0 0 0 -42.339 24.48l-32.562002-18.798c-9.621-5.554-21.804-3.788-29.437 4.282-26.36 27.867005-46.321 61.847005-57.53500042 99.595005-3.14899998 10.599 1.47000002 21.972 11.04600042 27.501l32.61 18.827a195.168 195.168 0 0 0 0 48.899l-32.61 18.827c-9.5760004 5.528-14.1950004 16.902-11.04600042 27.501 11.21400042 37.748 31.17500042 71.728 57.53500042 99.595 7.634 8.07 19.817 9.836 29.437 4.283l32.562002-18.798a194.08 194.08 0 0 0 42.339 24.479v37.614c0 11.13 7.652 20.804 18.484 23.367 37.645 8.909 77.118 8.91 114.77 0 10.831-2.563 18.484-12.236 18.484-23.367v-37.614a194.138 194.138 0 0 0 42.339-24.479l32.562 18.798c9.62 5.554 21.803 3.788 29.437-4.283 26.36-27.867 46.321-61.847 57.535-99.595 3.149-10.599-1.47-21.972-11.046-27.501zm-65.479 100.461-46.309-26.74c-26.988 23.071-36.559 28.876-71.039 41.059v53.479a217.145 217.145 0 0 1 -87.738 0v-53.479c-33.621-11.879-43.355-17.395-71.039-41.059l-46.309002 26.74c-19.71-22.09-34.689-47.989-43.929-75.958l46.329-26.74c-6.535-35.417-6.538-46.644 0-82.079l-46.329-26.74c9.24-27.969 24.22-53.869 43.929-75.969l46.309002 26.76c27.377-23.434 37.063-29.065 71.039-41.069005v-53.478a216.79 216.79 0 0 1 87.738 0v53.479c33.978 12.005005 43.665 17.637005 71.039 41.069005l46.309-26.76c19.709 22.099 34.689 47.999 43.929 75.969l-46.329 26.74c6.536 35.426 6.538 46.644 0 82.079l46.329 26.74c-9.24 27.968-24.219 53.868-43.929 75.957zm-161.217-239.737c-52.935 0-96 43.065-96 96s43.065 96 96 96 96-43.065 96-96-43.065-96-96-96zm0 160c-35.29 0-64-28.71-64-64s28.71-64 64-64 64 28.71 64 64-28.71 64-64 64z"/></svg>