<svg height="512" viewBox="0 0 384 512" width="384" xmlns="http://www.w3.org/2000/svg"><path d="m369.941 97.941-83.882-83.882a48 48 0 0 0 -33.941-14.059h-204.118c-26.51 0-48 21.49-48 48v416c0 26.51 21.49 48 48 48h288c26.51 0 48-21.49 48-48v-332.118a48 48 0 0 0 -14.059-33.941zm-22.627 22.628a15.89 15.89 0 0 1 4.195 7.431h-95.509v-95.509a15.88 15.88 0 0 1 7.431 4.195zm-11.314 359.431h-288c-8.837 0-16-7.163-16-16v-416c0-8.837 7.163-16 16-16h176v104c0 13.255 10.745 24 24 24h104v304c0 8.837-7.163 16-16 16zm-161.471-67.404-25.928-7.527a5.1 5.1 0 0 1 -3.476-6.32l58.027-199.869a5.1 5.1 0 0 1 6.32-3.476l25.927 7.527a5.1 5.1 0 0 1 3.476 6.32l-58.026 199.869a5.1 5.1 0 0 1 -6.32 3.476zm-48.446-47.674 18.492-19.724a5.101 5.101 0 0 0 -.351-7.317l-38.499-33.881 38.498-33.881a5.1 5.1 0 0 0 .351-7.317l-18.492-19.724a5.1 5.1 0 0 0 -7.209-.233l-61.263 57.434a5.1 5.1 0 0 0 0 7.441l61.263 57.434a5.1 5.1 0 0 0 7.21-.232zm139.043.232 61.262-57.434a5.1 5.1 0 0 0 0-7.441l-61.262-57.434a5.1 5.1 0 0 0 -7.209.233l-18.492 19.724a5.101 5.101 0 0 0 .351 7.317l38.499 33.881-38.499 33.881a5.1 5.1 0 0 0 -.351 7.317l18.492 19.724a5.1 5.1 0 0 0 7.209.232z"/></svg>