<svg height="444" viewBox="-9 0 14.32 17.76" width="358" xmlns="http://www.w3.org/2000/svg"><path d="m4.48 10.48c-.48 0-.84.36-.84.84v3.92c0 .48-.36.84-.84.84h-9.28c-.48 0-.84-.36-.84-.84v-3.92c0-.44-.36-.84-.84-.84s-.84.4-.84.84v3.92c0 1.4 1.12 2.52 2.52 2.52h9.28c1.4 0 2.52-1.12 2.52-2.52v-3.92c0-.44-.36-.84-.84-.84zm-6.92.88c.04.04.2.28.6.28s.56-.24.6-.28l3.52-3.52c.32-.32.32-.84 0-1.2-.32-.32-.84-.32-1.2 0l-2.08 2.12v-7.92c0-.48-.36-.84-.84-.84s-.84.36-.84.84v7.92l-2.08-2.08c-.32-.32-.84-.32-1.2 0-.32.32-.32.84 0 1.2z"/></svg>