<svg xmlns="http://www.w3.org/2000/svg" width="60" height="60" viewBox="0 0 62.07167 57.384948"><path d="M59.45618 46.862716h-5.23099v-5.23099h5.23099zm0 7.84648h-5.23099v-5.23099h5.23099zM51.6097 31.169394h-5.23099v-5.230989h5.23099zm0 7.846484h-5.23099v-5.23099h5.23099zm0 7.846838h-5.23099v-5.23099h5.23099zm-7.84649-15.693322h-5.23099v-5.230989h5.23099zm0 7.846484h-5.23099v-5.23099h5.23099zm0 7.846838h-5.23099v-5.23099h5.23099zm-7.84684 0h-5.23098v-5.23099h5.23098zm0 7.84648h-5.23098v-5.23099h5.23098zm18.30882-15.693318V23.32291H35.91637v15.692968h-7.84648v18.308809h14.38557v-7.846481h5.23099v7.846481h14.38522V39.015878z" fill="#0a84ff"/><path d="M14.2162 19.706057c-.41804166 0-.81844443-.16615833-1.1140722-.46143332l-2.53823605-2.53788328c-.61524443-.61524443-.61524443-1.61289996 0-2.2281444.6155972-.61524443 1.61289996-.61524443 2.22849717 0L14.2162 15.90240708l5.2669721-5.26732488c.61524444-.61524443 1.6125472-.61524443 2.2281444 0 .61524443.61524443.61524443 1.61289996 0 2.22849717l-6.3810443 6.3810443c-.29562777.295275-.69603054.46143333-1.1140722.46143333M14.2162 48.970096c-.41804166 0-.81844443-.16580555-1.1140722-.46143332l-2.53823605-2.53788328c-.61524443-.61524443-.61524443-1.61289996 0-2.2281444.6155972-.61524443 1.61289996-.61524443 2.22849717 0L14.2162 45.16644608l5.2669721-5.2669721c.61524444-.61524443 1.6125472-.61524443 2.2281444 0 .61524443.61524443.61524443 1.61254718 0 2.2281444l-6.3810443 6.3810443c-.29562777.29562777-.69603054.46143332-1.1140722.46143332" fill="#12bc00"/><path d="M18.366 29.589194l2.74602216-2.74602216c.61524443-.61524443.61524443-1.61289997 0-2.2281444-.6155972-.61524443-1.61289996-.61524443-2.22849717 0L16.1378556 27.3610496l-2.74602216-2.74602216c-.6155972-.61524443-1.61289996-.61524443-2.22849717 0-.61524443.61524443-.61524443 1.61289997 0 2.2281444l2.74637494 2.74602216-2.74637494 2.74602216c-.61524443.61524443-.61524443 1.61289997 0 2.2281444.307975.30762221.71119998.46143332 1.11442498.46143332.40322499 0 .8060972-.1538111 1.1140722-.46143332l2.74602215-2.74602216 2.74566939 2.74602216c.307975.30762221.7108472.46143332 1.1140722.46143332.40357777 0 .80680276-.1538111 1.11442497-.46143332.61524443-.61524443.61524443-1.61289997 0-2.2281444z" fill="#d70022"/><path d="M10.04041 52.812596c-3.01483882 0-5.46805543-2.45321661-5.46805543-5.46805543V10.04076082c0-3.0151916 2.4532166-5.46805543 5.46805543-5.46805543h34.1414798c3.01483883 0 5.46805544 2.45286383 5.46805544 5.46805543v8.99230536h4.57235267v-8.99230536C54.22229791 4.50426651 49.71838413-6e-8 44.18188981-6e-8H10.04041C4.50391568-6e-8.00000189 4.50426651.00000189 10.04076084v37.30377972c0 5.53614155 4.50391379 10.04040812 10.04040811 10.04040812h13.20306082V52.812596z" fill="#363959"/></svg>
