<svg viewBox="0 0 64 64" xmlns="http://www.w3.org/2000/svg"><g fill="#134563"><path d="m32.1 56c-13.2 0-23.9-10.7-23.9-23.9s10.7-23.9 23.9-23.9 23.9 10.7 23.9 23.9-10.7 23.9-23.9 23.9zm0-45.2c-11.7 0-21.3 9.6-21.3 21.3s9.6 21.3 21.3 21.3 21.3-9.6 21.3-21.3c0-11.8-9.6-21.3-21.3-21.3z"/><path d="m24.7 24.5c.4-1.1.9-2 1.6-2.7s1.6-1.3 2.6-1.7 2.2-.6 3.5-.6c1 0 2 .2 2.9.5s1.7.8 2.4 1.3 1.2 1.3 1.6 2.1.6 1.8.6 2.9c0 1.4-.3 2.5-.9 3.5s-1.4 1.9-2.3 2.8l-1.8 1.8c-.5.4-.8.9-1 1.3s-.4.9-.4 1.5c-.1.6-.1 1-.1 2.1h-2.3c0-1.1 0-1.6.2-2.3.1-.8.4-1.4.7-2.1.3-.6.8-1.2 1.3-1.8.6-.6 1.2-1.2 2-1.9.7-.6 1.3-1.3 1.7-2.1.5-.8.7-1.7.7-2.6 0-.7-.1-1.4-.4-2s-.7-1.1-1.1-1.6-1-.8-1.7-1c-.6-.2-1.3-.4-2-.4-1 0-1.9.2-2.6.5-.8.3-1.4.8-1.9 1.4s-.9 1.3-1.1 2.1-.4 1.5-.3 2.4h-2.3c-.1-1.4 0-2.3.4-3.4zm6 17.5h2.8v2.8h-2.8z"/></g></svg>