<svg height="386" viewBox="-5.5 0 20.64 15.44" width="516" xmlns="http://www.w3.org/2000/svg"><path d="m-.98 15.44c-1.2 0-2.36-.48-3.2-1.32-.84-.88-1.32-2-1.32-3.2s.48-2.36 1.32-3.2l4.24-4.24c.8-.8 1.88-1.28 3.04-1.32.48 0 .84.36.88.8 0 .48-.36.84-.8.88-.72.04-1.4.32-1.92.84l-4.24 4.2c-.52.52-.84 1.24-.84 2s.28 1.48.84 2c.52.52 1.24.84 2 .84s1.48-.28 2-.84l4.24-4.24c.52-.52.84-1.24.84-2 0-.48.36-.84.84-.84s.84.36.84.84c0 1.2-.48 2.36-1.32 3.2l-4.24 4.24c-.88.88-2 1.36-3.2 1.36zm7.48-2.16c-.44 0-.8-.36-.84-.8 0-.48.32-.84.8-.88.72-.04 1.4-.32 1.88-.84l4.28-4.24c1.12-1.12 1.12-2.92 0-4-1.12-1.12-2.92-1.12-4 0l-4.28 4.24c-.52.52-.8 1.2-.84 1.92 0 .48-.4.8-.88.8s-.84-.4-.8-.88c.04-1.16.52-2.24 1.32-3.04l4.28-4.24c1.76-1.76 4.64-1.76 6.4 0s1.76 4.64 0 6.4l-4.28 4.24c-.8.8-1.84 1.28-3.04 1.32z"/></svg>