<svg xmlns="http://www.w3.org/2000/svg" viewBox="0 0 64 64">
    <style>
        .st0{fill:#134563}
    </style>
    <path d="M46.3 28.7h-3v-6.4C43.3 16.1 38.2 11 32 11c-6.2 0-11.3 5.1-11.3 11.3v6.4h-3v-6.4C17.7 14.4 24.1 8 32 8s14.3 6.4 14.3 14.3v6.4" class="st0"/><path d="M44.8 55.9H19.2c-2.6 0-4.8-2.2-4.8-4.8V31.9c0-2.6 2.2-4.8 4.8-4.8h25.6c2.6 0 4.8 2.2 4.8 4.8v19.2c0 2.7-2.2 4.8-4.8 4.8zM19.2 30.3c-.9 0-1.6.7-1.6 1.6v19.2c0 .9.7 1.6 1.6 1.6h25.6c.9 0 1.6-.7 1.6-1.6V31.9c0-.9-.7-1.6-1.6-1.6H19.2z" class="st0"/><path d="M35.2 36.7c0 1.8-1.4 3.2-3.2 3.2s-3.2-1.4-3.2-3.2 1.4-3.2 3.2-3.2 3.2 1.5 3.2 3.2" class="st0"/><path d="M32.8 36.7h-1.6l-1.6 9.6h4.8l-1.6-9.6" class="st0"/>
</svg>
