<svg viewBox="0 0 64 64" xmlns="http://www.w3.org/2000/svg"><g fill="#134563"><path d="m46.3 28.7h-3v-6.4c0-6.2-5.1-11.3-11.3-11.3s-11.3 5.1-11.3 11.3v6.4h-3v-6.4c0-7.9 6.4-14.3 14.3-14.3s14.3 6.4 14.3 14.3z"/><path d="m44.8 55.9h-25.6c-2.6 0-4.8-2.2-4.8-4.8v-19.2c0-2.6 2.2-4.8 4.8-4.8h25.6c2.6 0 4.8 2.2 4.8 4.8v19.2c0 2.7-2.2 4.8-4.8 4.8zm-25.6-25.6c-.9 0-1.6.7-1.6 1.6v19.2c0 .9.7 1.6 1.6 1.6h25.6c.9 0 1.6-.7 1.6-1.6v-19.2c0-.9-.7-1.6-1.6-1.6z"/><path d="m35.2 36.7c0 1.8-1.4 3.2-3.2 3.2s-3.2-1.4-3.2-3.2 1.4-3.2 3.2-3.2 3.2 1.5 3.2 3.2"/><path d="m32.8 36.7h-1.6l-1.6 9.6h4.8z"/></g></svg>