<svg height="511.99936" viewBox="0 0 320.00049 511.99936" width="320.00049" xmlns="http://www.w3.org/2000/svg"><path d="m154.149 488.43775-41.915-101.865-46.788 52.8c-23.014 25.972-65.446 9.415-65.446-25.873v-374.939002c0-34.714 41.401-51.675 64.794-26.59l244.753 262.439002c22.697 24.335 6.074 65.09-27.195 65.09h-65.71l42.809 104.037c8.149 19.807-1.035 42.511-20.474 50.61l-36 15.001c-19.036 7.928-40.808-1.217-48.828-20.71zm-31.84-161.482 61.435 149.307c1.182 2.877 4.117 4.518 6.926 3.347l35.999-15c3.114-1.298 4.604-5.455 3.188-8.896l-60.985-148.214h113.479c5.009 0 7.62-7.16 3.793-11.266l-244.752-262.439002c-3.607-3.863-9.392-.916-9.392 4.766v374.939002c0 5.775 5.935 8.67 9.497 4.65z"/></svg>