<svg height="379.58609" viewBox="0 0 17.92 15.183444" width="448" xmlns="http://www.w3.org/2000/svg"><path d="m2.56 0c-1.4 0-2.56 1.16-2.56 2.56v8.08c0 1.4 1.16 2.56 2.56 2.56h5.84c.48 0 .84-.36.84-.84s-.36-.84-.84-.84h-5.84c-.48 0-.88-.4-.88-.88v-8.08c0-.48.4-.88.88-.88h12.8c.48 0 .88.4.88.88v3.04c0 .48.36.84.84.84s.84-.36.84-.84v-3.04c0-1.4-1.16-2.56-2.56-2.56zm2.12 3.32c-.48 0-.84.36-.84.84s.36.84.84.84h6.4c.48 0 .84-.36.84-.84s-.36-.84-.84-.84zm0 3.12c-.48 0-.84.36-.84.84s.36.84.84.84h3.68c.48 0 .84-.36.84-.84s-.36-.84-.84-.84zm11.64 1.32c-.4-.4-1.04-.4-1.44 0l-4.36 4.36c-.12.12-.2.24-.24.4l-.56 2c-.12.4.24.76.64.64l2-.56c.16-.04.28-.12.4-.24l4.36-4.36c.4-.4.4-1.04 0-1.44zm-4.92 5.52.16-.56 3.24-3.24.56.56-3.24 3.24z"/></svg>