<svg height="448" viewBox="0 0 448 448" width="448" xmlns="http://www.w3.org/2000/svg"><path d="m433.941 97.941-83.882-83.882a48 48 0 0 0 -33.941-14.059h-268.118c-26.51 0-48 21.49-48 48v352c0 26.51 21.49 48 48 48h352c26.51 0 48-21.49 48-48v-268.118a48 48 0 0 0 -14.059-33.941zm-145.941-65.941v96h-192v-96zm128 368c0 8.822-7.178 16-16 16h-352c-8.822 0-16-7.178-16-16v-352c0-8.822 7.178-16 16-16h16v104c0 13.255 10.745 24 24 24h208c13.255 0 24-10.745 24-24v-103.509a15.888 15.888 0 0 1 7.432 4.195l83.882 83.882a15.895 15.895 0 0 1 4.686 11.314zm-192-200c-48.523 0-88 39.477-88 88s39.477 88 88 88 88-39.477 88-88-39.477-88-88-88zm0 144c-30.879 0-56-25.121-56-56s25.121-56 56-56 56 25.121 56 56-25.121 56-56 56z"/></svg>