<svg height="384" viewBox="0 0 576 384" width="576" xmlns="http://www.w3.org/2000/svg"><path d="m566.819 163.377-104.442-143.609a48.001 48.001 0 0 0 -38.82-19.768h-271.114a47.998 47.998 0 0 0 -38.819 19.768l-104.443 143.609a47.996 47.996 0 0 0 -9.181 28.232v144.391c0 26.51 21.49 48 48 48h480c26.51 0 48-21.49 48-48v-144.391a47.996 47.996 0 0 0 -9.181-28.232zm-427.316-124.788a16.048 16.048 0 0 1 12.94-6.589h271.115c5.102 0 9.939 2.463 12.94 6.589l88.298 121.411h-473.592zm404.497 169.411v128c0 8.823-7.178 16-16 16h-480c-8.822 0-16-7.177-16-16v-128c0-8.837 7.163-16 16-16h480c8.837 0 16 7.163 16 16zm-56 64c0 13.255-10.745 24-24 24s-24-10.745-24-24 10.745-24 24-24 24 10.745 24 24zm-64 0c0 13.255-10.745 24-24 24s-24-10.745-24-24 10.745-24 24-24 24 10.745 24 24z"/></svg>