<svg height="553" viewBox="-5 0 22.2 22.12" width="555" xmlns="http://www.w3.org/2000/svg"><path d="m6.08 22.12c-1.2 0-1.68-.88-2-1.48-.28-.56-.56-1.08-1.36-1.44-.32-.12-.6-.2-.88-.2-.4 0-.72.12-1.12.24-.36.08-.72.2-1.12.2-.52 0-.96-.2-1.36-.6-.84-.84-.56-1.8-.36-2.48.2-.6.36-1.16.04-1.96s-.88-1.08-1.44-1.36c-.64-.32-1.48-.8-1.48-2s.88-1.68 1.48-2c.56-.28 1.08-.56 1.44-1.36.32-.8.16-1.36-.04-1.96-.2-.68-.52-1.6.36-2.48.4-.4.84-.6 1.36-.6.4 0 .76.12 1.12.24.36.12.72.24 1.12.24.28 0 .56-.08.88-.2.8-.32 1.08-.88 1.36-1.44.32-.64.8-1.48 2-1.48s1.68.88 2 1.48c.28.56.56 1.08 1.36 1.44.32.12.6.2.88.2.4 0 .72-.12 1.12-.24.36-.12.72-.24 1.12-.24.52 0 .96.2 1.36.6.84.84.56 1.8.36 2.48-.2.6-.36 1.16-.04 1.96s.88 1.08 1.44 1.36c.64.32 1.52.8 1.52 2s-.88 1.68-1.48 2c-.56.28-1.08.56-1.44 1.36-.32.8-.16 1.36.04 1.96.2.68.52 1.6-.36 2.48-.4.4-.84.56-1.36.56-.4 0-.76-.12-1.12-.24s-.72-.24-1.12-.24c-.28 0-.56.08-.88.2-.8.32-1.08.88-1.36 1.44-.4.68-.84 1.56-2.04 1.56zm-4.28-4.8c.52 0 1 .12 1.52.32 1.36.56 1.88 1.56 2.2 2.2.32.6.36.6.52.6s.2 0 .52-.6c.32-.64.84-1.64 2.2-2.2.52-.2 1-.32 1.52-.32.64 0 1.16.16 1.6.32.24.08.48.16.6.16.04 0 .08 0 .16-.08.12-.12.16-.16-.08-.8-.2-.68-.56-1.76 0-3.12s1.56-1.88 2.2-2.2c.6-.32.6-.36.6-.52s0-.2-.6-.52c-.64-.32-1.64-.84-2.2-2.2s-.24-2.44 0-3.12c.2-.64.16-.68.08-.8-.08-.08-.12-.08-.16-.08-.16 0-.36.08-.6.16-.44.12-.96.32-1.6.32-.52 0-1-.12-1.52-.32-1.36-.56-1.88-1.56-2.2-2.2-.32-.6-.36-.6-.52-.6s-.2 0-.52.6c-.32.64-.84 1.64-2.2 2.2-.52.2-1 .32-1.52.32-.64 0-1.16-.16-1.6-.32-.24-.08-.48-.16-.6-.16-.04 0-.08 0-.16.08-.12.12-.16.16.08.8.2.68.56 1.76 0 3.12-.52 1.36-1.52 1.88-2.16 2.2-.6.32-.6.36-.6.52s0 .2.6.52c.64.32 1.64.84 2.2 2.2.56 1.36.24 2.44 0 3.12-.2.64-.16.68-.08.8.08.08.12.08.16.08.16 0 .36-.08.6-.16.36-.16.96-.32 1.56-.32zm4.28-1.08c-2.88 0-5.24-2.36-5.24-5.24s2.36-5.24 5.24-5.24c2.92.04 5.24 2.4 5.24 5.28s-2.32 5.2-5.24 5.2zm0-8.76c-1.96 0-3.56 1.56-3.56 3.56s1.6 3.56 3.56 3.56 3.56-1.6 3.56-3.56-1.64-3.56-3.56-3.56z"/></svg>