<svg height="476" viewBox="-7.5 0 16.96 19.04" width="424" xmlns="http://www.w3.org/2000/svg"><path d="m8.58 3.48h-4.28v-.84c0-1.44-1.12-2.64-2.48-2.64h-1.72c-1.36 0-2.48 1.2-2.48 2.64v.84h-4.28c-.48 0-.84.4-.84.84 0 .48.36.84.84.84h.84v11.16c0 1.48 1.2 2.72 2.72 2.72h8.16c1.48 0 2.72-1.2 2.72-2.72v-11.16h.84c.48 0 .84-.36.84-.84-.04-.44-.44-.84-.88-.84zm-9.28-.84c0-.52.36-.96.8-.96h1.72c.44 0 .8.44.8.96v.84h-3.32zm6.76 13.68c0 .56-.48 1.04-1.04 1.04h-8.16c-.56 0-1.04-.48-1.04-1.04v-11.16h1.8v8.24c0 .48.36.84.84.84s.84-.36.84-.84v-8.24h3.28v8.24c0 .48.36.84.84.84s.84-.36.84-.84v-8.24h1.8z"/></svg>