<svg height="512" viewBox="0 0 480 512" width="480" xmlns="http://www.w3.org/2000/svg"><path d="m352 64-33.6-44.8c-9.1-12.1-23.3-19.2-38.4-19.2h-80c-15.1 0-29.3 7.1-38.4 19.2l-33.6 44.8h-104c-13.3 0-24 10.7-24 24v2c0 3.3 2.7 6 6 6h20.9l33.2 372.3c2.2 24.7 22.9 43.7 47.8 43.7h264.2c24.9 0 45.6-19 47.8-43.7l33.2-372.3h20.9c3.3 0 6-2.7 6-6v-2c0-13.3-10.7-24-24-24zm-152-32h80c5 0 9.8 2.4 12.8 6.4l19.2 25.6h-144l19.2-25.6c3-4 7.8-6.4 12.8-6.4zm188 433.4c-.7 8.3-7.6 14.6-15.9 14.6h-264.2c-8.3 0-15.2-6.3-15.9-14.6l-33-369.4h362z"/></svg>