<svg viewBox="0 0 64 64" xmlns="http://www.w3.org/2000/svg"><g fill="#134563"><path d="m20.8 28.8h-3v-6.4c0-7.8 6.4-14.2 14.2-14.2 7.2 0 13.2 5.3 14.1 12.4l-2.9.4c-.7-5.6-5.5-9.8-11.2-9.8-6.2 0-11.2 5-11.2 11.2z"/><path d="m44.7 55.8h-25.5c-2.6 0-4.8-2.1-4.8-4.8v-19.1c0-2.6 2.1-4.8 4.8-4.8h25.5c2.6 0 4.8 2.1 4.8 4.8v19.1c0 2.7-2.1 4.8-4.8 4.8zm-25.4-25.4c-.9 0-1.6.7-1.6 1.6v19.1c0 .9.7 1.6 1.6 1.6h25.5c.9 0 1.6-.7 1.6-1.6v-19.1c0-.9-.7-1.6-1.6-1.6z"/><path d="m35.2 36.7c0 1.8-1.4 3.2-3.2 3.2s-3.2-1.4-3.2-3.2 1.4-3.2 3.2-3.2 3.2 1.5 3.2 3.2"/><path d="m32.8 36.7h-1.6l-1.6 9.6h4.8z"/></g></svg>